<svg viewBox="0 33.125 135.37 39.591" xmlns="http://www.w3.org/2000/svg" xmlns:bx="https://boxy-svg.com">
  <defs>
    <bx:export>
      <bx:file format="svg"></bx:file>
    </bx:export>
  </defs>
  <g fill="#21759b" style="" transform="matrix(0.196335, 0, 0, 0.196335, 6.380868, 40.892723)">
    <path d="m8.708 61.26c0 20.802 12.089 38.779 29.619 47.298l-25.069-68.686c-2.916 6.536-4.55 13.769-4.55 21.388z" style="fill: rgb(0, 0, 0);"></path>
    <path d="m96.74 58.608c0-6.495-2.333-10.993-4.334-14.494-2.664-4.329-5.161-7.995-5.161-12.324 0-4.831 3.664-9.328 8.825-9.328.233 0 .454.029.681.042-9.35-8.566-21.807-13.796-35.489-13.796-18.36 0-34.513 9.42-43.91 23.688 1.233.037 2.395.063 3.382.063 5.497 0 14.006-.667 14.006-.667 2.833-.167 3.167 3.994.337 4.329 0 0-2.847.335-6.015.501l19.138 56.925 11.501-34.493-8.188-22.434c-2.83-.166-5.511-.501-5.511-.501-2.832-.166-2.5-4.496.332-4.329 0 0 8.679.667 13.843.667 5.496 0 14.006-.667 14.006-.667 2.835-.167 3.168 3.994.337 4.329 0 0-2.853.335-6.015.501l18.992 56.494 5.242-17.517c2.272-7.269 4.001-12.49 4.001-16.989z" style="fill: rgb(0, 0, 0);"></path>
    <path d="m62.184 65.857-15.768 45.819c4.708 1.384 9.687 2.141 14.846 2.141 6.12 0 11.989-1.058 17.452-2.979-.141-.225-.269-.464-.374-.724z" style="fill: rgb(0, 0, 0);"></path>
    <path d="m107.376 36.046c.226 1.674.354 3.471.354 5.404 0 5.333-.996 11.328-3.996 18.824l-16.053 46.413c15.624-9.111 26.133-26.038 26.133-45.426.001-9.137-2.333-17.729-6.438-25.215z" style="fill: rgb(0, 0, 0);"></path>
    <path d="m61.262 0c-33.779 0-61.262 27.481-61.262 61.26 0 33.783 27.483 61.263 61.262 61.263 33.778 0 61.265-27.48 61.265-61.263-.001-33.779-27.487-61.26-61.265-61.26zm0 119.715c-32.23 0-58.453-26.223-58.453-58.455 0-32.23 26.222-58.451 58.453-58.451 32.229 0 58.45 26.221 58.45 58.451 0 32.232-26.221 58.455-58.45 58.455z" style="fill: rgb(0, 0, 0);"></path>
  </g>
  <path d="M 40.963 49.977 H 45.368 L 45.368 46.879 L 51.55 52.92 L 45.368 58.961 L 45.368 55.863 H 40.963 V 49.977 Z" style="stroke: rgba(0, 0, 0, 0.85);" bx:shape="arrow 40.963 46.879 10.587 12.082 5.886 6.182 0 1@3a53bb63"></path>
  <g transform="matrix(1, 0, 0, 1, -20.666718, 1.783001)">
    <path d="M 87.202 58.222 C 86.421 57.507 86.193 56.007 86.518 54.919 C 87.083 55.604 87.865 55.822 88.675 55.944 C 89.926 56.133 91.155 56.063 92.316 55.491 C 92.449 55.425 92.572 55.338 92.718 55.251 C 92.826 55.567 92.855 55.886 92.817 56.211 C 92.724 57.003 92.33 57.614 91.704 58.077 C 91.453 58.262 91.188 58.428 90.929 58.604 C 90.134 59.141 89.919 59.77 90.218 60.687 C 90.225 60.709 90.231 60.732 90.248 60.786 C 89.842 60.604 89.545 60.34 89.319 59.992 C 89.08 59.625 88.967 59.219 88.961 58.78 C 88.958 58.566 88.958 58.351 88.929 58.139 C 88.859 57.626 88.618 57.396 88.164 57.383 C 87.698 57.369 87.328 57.657 87.23 58.111 C 87.223 58.146 87.212 58.181 87.201 58.221 L 87.202 58.222 Z" fill="#17191E" style=""></path>
    <path d="M 82.742 54.737 C 82.742 54.737 85.056 53.611 87.377 53.611 L 89.127 48.196 C 89.192 47.934 89.383 47.756 89.598 47.756 C 89.815 47.756 90.006 47.934 90.072 48.196 L 91.821 53.611 C 94.569 53.611 96.456 54.737 96.456 54.737 C 96.456 54.737 92.525 44.031 92.518 44.009 C 92.405 43.693 92.214 43.489 91.957 43.489 L 87.241 43.489 C 86.984 43.489 86.802 43.693 86.68 44.009 C 86.672 44.03 82.742 54.737 82.742 54.737 Z" fill="#17191E" style=""></path>
    <path d="M 107.139 51.293 C 107.139 52.242 105.959 52.809 104.325 52.809 C 103.261 52.809 102.885 52.546 102.885 51.992 C 102.885 51.412 103.352 51.136 104.416 51.136 C 105.376 51.136 106.193 51.149 107.139 51.267 L 107.139 51.293 Z M 107.152 50.121 C 106.569 49.989 105.687 49.91 104.637 49.91 C 101.575 49.91 100.136 50.635 100.136 52.321 C 100.136 54.074 101.122 54.746 103.404 54.746 C 105.337 54.746 106.646 54.259 107.126 53.06 L 107.204 53.06 C 107.191 53.349 107.178 53.639 107.178 53.863 C 107.178 54.482 107.282 54.536 107.788 54.536 L 110.174 54.536 C 110.044 54.166 109.967 53.126 109.967 52.229 C 109.967 51.267 110.005 50.543 110.005 49.567 C 110.005 47.577 108.812 46.312 105.077 46.312 C 103.469 46.312 101.679 46.589 100.318 46.997 C 100.447 47.538 100.629 48.632 100.719 49.344 C 101.9 48.79 103.573 48.553 104.87 48.553 C 106.659 48.553 107.152 48.961 107.152 49.792 L 107.152 50.121 Z" fill="#17191E" style=""></path>
    <path d="M 113.7 51.847 C 113.376 51.887 112.935 51.887 112.481 51.887 C 112.001 51.887 111.56 51.873 111.262 51.834 C 111.262 51.939 111.249 52.058 111.249 52.164 C 111.249 53.811 112.325 54.773 116.112 54.773 C 119.679 54.773 120.833 53.824 120.833 52.15 C 120.833 50.569 120.068 49.792 116.683 49.62 C 114.05 49.501 113.817 49.212 113.817 48.882 C 113.817 48.5 114.154 48.302 115.918 48.302 C 117.746 48.302 118.239 48.553 118.239 49.08 L 118.239 49.199 C 118.499 49.185 118.966 49.172 119.446 49.172 C 119.899 49.172 120.392 49.185 120.678 49.212 C 120.678 49.093 120.69 48.987 120.69 48.895 C 120.69 46.958 119.082 46.326 115.97 46.326 C 112.468 46.326 111.288 47.182 111.288 48.855 C 111.288 50.358 112.235 51.293 115.594 51.438 C 118.07 51.518 118.343 51.794 118.343 52.176 C 118.343 52.585 117.941 52.77 116.203 52.77 C 114.206 52.77 113.7 52.493 113.7 51.926 L 113.7 51.847 Z" fill="#17191E" style=""></path>
    <path d="M 125.114 44.902 C 124.167 45.785 122.468 46.668 121.521 46.906 C 121.534 47.393 121.534 48.289 121.534 48.777 L 122.403 48.79 C 122.39 49.726 122.377 50.859 122.377 51.61 C 122.377 53.363 123.298 54.68 126.164 54.68 C 127.371 54.68 128.174 54.548 129.173 54.338 C 129.07 53.692 128.953 52.704 128.914 51.953 C 128.317 52.15 127.565 52.255 126.735 52.255 C 125.581 52.255 125.114 51.939 125.114 51.03 C 125.114 50.239 125.114 49.501 125.126 48.816 C 126.605 48.83 128.084 48.855 128.953 48.882 C 128.94 48.197 128.966 47.208 129.004 46.549 C 127.747 46.576 126.333 46.589 125.166 46.589 C 125.179 46.009 125.192 45.455 125.205 44.902 L 125.114 44.902 Z" fill="#17191E" style=""></path>
    <path d="M 132.86 48.381 C 132.873 47.696 132.886 47.116 132.898 46.549 L 130.292 46.549 C 130.331 47.683 130.331 48.842 130.331 50.543 C 130.331 52.242 130.318 53.415 130.292 54.536 L 133.275 54.536 C 133.223 53.745 133.21 52.414 133.21 51.28 C 133.21 49.488 133.936 48.974 135.583 48.974 C 136.349 48.974 136.893 49.067 137.373 49.238 C 137.386 48.566 137.516 47.261 137.593 46.681 C 137.101 46.536 136.556 46.444 135.895 46.444 C 134.481 46.431 133.444 47.011 132.964 48.394 L 132.86 48.381 Z" fill="#17191E" style=""></path>
    <path d="M 145.845 50.49 C 145.845 51.926 144.808 52.598 143.174 52.598 C 141.553 52.598 140.515 51.966 140.515 50.49 C 140.515 49.014 141.566 48.46 143.174 48.46 C 144.795 48.46 145.845 49.053 145.845 50.49 Z M 148.556 50.424 C 148.556 47.564 146.325 46.286 143.174 46.286 C 140.009 46.286 137.857 47.564 137.857 50.424 C 137.857 53.27 139.867 54.799 143.161 54.799 C 146.481 54.799 148.556 53.27 148.556 50.424 Z" fill="#17191E" style=""></path>
  </g>
</svg>